<?xml version="1.0" encoding="utf-8" ?>
<svg xmlns="http://www.w3.org/2000/svg" xmlns:xlink="http://www.w3.org/1999/xlink" width="32" height="32" viewBox="0 0 32 32">
	<defs>
		<clipPath id="clipPath7617901294">
			<path transform="matrix(1 0 0 1 0 0)" d="M0 0L32 0L32 32L0 32L0 0Z" fill-rule="nonzero"/>
		</clipPath>
	</defs>
	<g clip-path="url(#clipPath7617901294)">
		<path transform="matrix(1 0 0 1 3 9)" d="M-1 3C-1 0.790861 0.790861 -1 3 -1L23 -1C25.2091 -1 27 0.790861 27 3L27 15C27 17.2091 25.2091 19 23 19L3 19C0.790861 19 -1 17.2091 -1 15L-1 3ZM3 1C1.89543 1 1 1.89543 1 3L1 15C1 16.1046 1.89543 17 3 17L23 17C24.1046 17 25 16.1046 25 15L25 3C25 1.89543 24.1046 1 23 1L3 1Z" fill-rule="nonzero" fill="rgb(37, 99, 235)"/>
		<path transform="matrix(1 0 0 1 3 3.99377)" d="M21.71 5.00623L21.71 3.13123Q21.7097 2.13193 20.9394 1.4948Q20.1692 0.857668 19.1872 1.0448L2.70825 3.85759Q1.97517 3.99749 1.48733 4.58748Q0.999482 5.17748 1 5.94305L1 9.00623L-0.999999 9.00623L-0.999999 5.9444Q-1.00101 4.45831 -0.0540152 3.31302Q0.892975 2.16773 2.37175 1.8861L18.8128 -0.919847Q20.7189 -1.2831 22.2142 -0.046317Q23.7094 1.19046 23.71 3.13123L23.71 5.00623L21.71 5.00623Z" fill-rule="nonzero" fill="rgb(37, 99, 235)"/>
		<path transform="matrix(1 0 0 1 21 16)" d="M2 4C1.44771 4 0.976309 3.80474 0.585785 3.41421C0.195262 3.02369 0 2.55228 0 2C0 1.44771 0.195262 0.976309 0.585785 0.585785C0.976309 0.195262 1.44771 0 2 0C2.55228 0 3.02369 0.195262 3.41421 0.585785C3.80474 0.976309 4 1.44771 4 2C4 2.55228 3.80474 3.02369 3.41421 3.41421C3.02369 3.80474 2.55228 4 2 4Z" fill-rule="nonzero" fill="rgb(37, 99, 235)"/>
	</g>
</svg>
